%TF.GenerationSoftware,KiCad,Pcbnew,(6.0.7)*%
%TF.CreationDate,2023-01-09T20:26:50-06:00*%
%TF.ProjectId,Contactor PCB,436f6e74-6163-4746-9f72-205043422e6b,rev?*%
%TF.SameCoordinates,Original*%
%TF.FileFunction,Legend,Top*%
%TF.FilePolarity,Positive*%
%FSLAX46Y46*%
G04 Gerber Fmt 4.6, Leading zero omitted, Abs format (unit mm)*
G04 Created by KiCad (PCBNEW (6.0.7)) date 2023-01-09 20:26:50*
%MOMM*%
%LPD*%
G01*
G04 APERTURE LIST*
%ADD10C,0.120000*%
%ADD11C,0.075000*%
%ADD12C,0.150000*%
%ADD13C,0.127000*%
G04 APERTURE END LIST*
D10*
X176036742Y-107882885D02*
X175608171Y-107882885D01*
X175822457Y-107882885D02*
X175822457Y-107132885D01*
X175751028Y-107240028D01*
X175679600Y-107311457D01*
X175608171Y-107347171D01*
X176322457Y-107668600D02*
X176679600Y-107668600D01*
X176251028Y-107882885D02*
X176501028Y-107132885D01*
X176751028Y-107882885D01*
X177572457Y-107882885D02*
X177572457Y-107132885D01*
X177572457Y-107490028D02*
X178001028Y-107490028D01*
X178001028Y-107882885D02*
X178001028Y-107132885D01*
X178251028Y-107132885D02*
X178501028Y-107882885D01*
X178751028Y-107132885D01*
X179215314Y-108168600D02*
X179179600Y-108132885D01*
X179108171Y-108025742D01*
X179072457Y-107954314D01*
X179036742Y-107847171D01*
X179001028Y-107668600D01*
X179001028Y-107525742D01*
X179036742Y-107347171D01*
X179072457Y-107240028D01*
X179108171Y-107168600D01*
X179179600Y-107061457D01*
X179215314Y-107025742D01*
X179501028Y-107597171D02*
X180072457Y-107597171D01*
X180358171Y-108168600D02*
X180393885Y-108132885D01*
X180465314Y-108025742D01*
X180501028Y-107954314D01*
X180536742Y-107847171D01*
X180572457Y-107668600D01*
X180572457Y-107525742D01*
X180536742Y-107347171D01*
X180501028Y-107240028D01*
X180465314Y-107168600D01*
X180393885Y-107061457D01*
X180358171Y-107025742D01*
X181751028Y-107490028D02*
X181501028Y-107490028D01*
X181501028Y-107882885D02*
X181501028Y-107132885D01*
X181858171Y-107132885D01*
X182465314Y-107382885D02*
X182465314Y-107882885D01*
X182143885Y-107382885D02*
X182143885Y-107775742D01*
X182179600Y-107847171D01*
X182251028Y-107882885D01*
X182358171Y-107882885D01*
X182429600Y-107847171D01*
X182465314Y-107811457D01*
X182786742Y-107847171D02*
X182858171Y-107882885D01*
X183001028Y-107882885D01*
X183072457Y-107847171D01*
X183108171Y-107775742D01*
X183108171Y-107740028D01*
X183072457Y-107668600D01*
X183001028Y-107632885D01*
X182893885Y-107632885D01*
X182822457Y-107597171D01*
X182786742Y-107525742D01*
X182786742Y-107490028D01*
X182822457Y-107418600D01*
X182893885Y-107382885D01*
X183001028Y-107382885D01*
X183072457Y-107418600D01*
X183715314Y-107847171D02*
X183643885Y-107882885D01*
X183501028Y-107882885D01*
X183429600Y-107847171D01*
X183393885Y-107775742D01*
X183393885Y-107490028D01*
X183429600Y-107418600D01*
X183501028Y-107382885D01*
X183643885Y-107382885D01*
X183715314Y-107418600D01*
X183751028Y-107490028D01*
X183751028Y-107561457D01*
X183393885Y-107632885D01*
D11*
X168367200Y-118031390D02*
X168367200Y-117531390D01*
X168367200Y-117769485D02*
X168652914Y-117769485D01*
X168652914Y-118031390D02*
X168652914Y-117531390D01*
X168819580Y-117531390D02*
X168986247Y-118031390D01*
X169152914Y-117531390D01*
X169462438Y-118221866D02*
X169438628Y-118198057D01*
X169391009Y-118126628D01*
X169367200Y-118079009D01*
X169343390Y-118007580D01*
X169319580Y-117888533D01*
X169319580Y-117793295D01*
X169343390Y-117674247D01*
X169367200Y-117602819D01*
X169391009Y-117555200D01*
X169438628Y-117483771D01*
X169462438Y-117459961D01*
X169652914Y-117840914D02*
X170033866Y-117840914D01*
X170224342Y-118221866D02*
X170248152Y-118198057D01*
X170295771Y-118126628D01*
X170319580Y-118079009D01*
X170343390Y-118007580D01*
X170367200Y-117888533D01*
X170367200Y-117793295D01*
X170343390Y-117674247D01*
X170319580Y-117602819D01*
X170295771Y-117555200D01*
X170248152Y-117483771D01*
X170224342Y-117459961D01*
D10*
X176036742Y-99399285D02*
X175608171Y-99399285D01*
X175822457Y-99399285D02*
X175822457Y-98649285D01*
X175751028Y-98756428D01*
X175679600Y-98827857D01*
X175608171Y-98863571D01*
X176322457Y-99185000D02*
X176679600Y-99185000D01*
X176251028Y-99399285D02*
X176501028Y-98649285D01*
X176751028Y-99399285D01*
X177572457Y-99399285D02*
X177572457Y-98649285D01*
X177572457Y-99006428D02*
X178001028Y-99006428D01*
X178001028Y-99399285D02*
X178001028Y-98649285D01*
X178251028Y-98649285D02*
X178501028Y-99399285D01*
X178751028Y-98649285D01*
X179215314Y-99685000D02*
X179179600Y-99649285D01*
X179108171Y-99542142D01*
X179072457Y-99470714D01*
X179036742Y-99363571D01*
X179001028Y-99185000D01*
X179001028Y-99042142D01*
X179036742Y-98863571D01*
X179072457Y-98756428D01*
X179108171Y-98685000D01*
X179179600Y-98577857D01*
X179215314Y-98542142D01*
X179501028Y-99113571D02*
X180072457Y-99113571D01*
X179786742Y-99399285D02*
X179786742Y-98827857D01*
X180358171Y-99685000D02*
X180393885Y-99649285D01*
X180465314Y-99542142D01*
X180501028Y-99470714D01*
X180536742Y-99363571D01*
X180572457Y-99185000D01*
X180572457Y-99042142D01*
X180536742Y-98863571D01*
X180501028Y-98756428D01*
X180465314Y-98685000D01*
X180393885Y-98577857D01*
X180358171Y-98542142D01*
X181751028Y-99006428D02*
X181501028Y-99006428D01*
X181501028Y-99399285D02*
X181501028Y-98649285D01*
X181858171Y-98649285D01*
X182465314Y-98899285D02*
X182465314Y-99399285D01*
X182143885Y-98899285D02*
X182143885Y-99292142D01*
X182179600Y-99363571D01*
X182251028Y-99399285D01*
X182358171Y-99399285D01*
X182429600Y-99363571D01*
X182465314Y-99327857D01*
X182786742Y-99363571D02*
X182858171Y-99399285D01*
X183001028Y-99399285D01*
X183072457Y-99363571D01*
X183108171Y-99292142D01*
X183108171Y-99256428D01*
X183072457Y-99185000D01*
X183001028Y-99149285D01*
X182893885Y-99149285D01*
X182822457Y-99113571D01*
X182786742Y-99042142D01*
X182786742Y-99006428D01*
X182822457Y-98935000D01*
X182893885Y-98899285D01*
X183001028Y-98899285D01*
X183072457Y-98935000D01*
X183715314Y-99363571D02*
X183643885Y-99399285D01*
X183501028Y-99399285D01*
X183429600Y-99363571D01*
X183393885Y-99292142D01*
X183393885Y-99006428D01*
X183429600Y-98935000D01*
X183501028Y-98899285D01*
X183643885Y-98899285D01*
X183715314Y-98935000D01*
X183751028Y-99006428D01*
X183751028Y-99077857D01*
X183393885Y-99149285D01*
X175608171Y-63788485D02*
X175179600Y-63788485D01*
X175393885Y-63788485D02*
X175393885Y-63038485D01*
X175322457Y-63145628D01*
X175251028Y-63217057D01*
X175179600Y-63252771D01*
X175893885Y-63574200D02*
X176251028Y-63574200D01*
X175822457Y-63788485D02*
X176072457Y-63038485D01*
X176322457Y-63788485D01*
X177393885Y-63395628D02*
X177501028Y-63431342D01*
X177536742Y-63467057D01*
X177572457Y-63538485D01*
X177572457Y-63645628D01*
X177536742Y-63717057D01*
X177501028Y-63752771D01*
X177429600Y-63788485D01*
X177143885Y-63788485D01*
X177143885Y-63038485D01*
X177393885Y-63038485D01*
X177465314Y-63074200D01*
X177501028Y-63109914D01*
X177536742Y-63181342D01*
X177536742Y-63252771D01*
X177501028Y-63324200D01*
X177465314Y-63359914D01*
X177393885Y-63395628D01*
X177143885Y-63395628D01*
X178215314Y-63788485D02*
X178215314Y-63395628D01*
X178179600Y-63324200D01*
X178108171Y-63288485D01*
X177965314Y-63288485D01*
X177893885Y-63324200D01*
X178215314Y-63752771D02*
X178143885Y-63788485D01*
X177965314Y-63788485D01*
X177893885Y-63752771D01*
X177858171Y-63681342D01*
X177858171Y-63609914D01*
X177893885Y-63538485D01*
X177965314Y-63502771D01*
X178143885Y-63502771D01*
X178215314Y-63467057D01*
X178465314Y-63288485D02*
X178751028Y-63288485D01*
X178572457Y-63038485D02*
X178572457Y-63681342D01*
X178608171Y-63752771D01*
X178679600Y-63788485D01*
X178751028Y-63788485D01*
X178893885Y-63288485D02*
X179179600Y-63288485D01*
X179001028Y-63038485D02*
X179001028Y-63681342D01*
X179036742Y-63752771D01*
X179108171Y-63788485D01*
X179179600Y-63788485D01*
X179643885Y-64074200D02*
X179608171Y-64038485D01*
X179536742Y-63931342D01*
X179501028Y-63859914D01*
X179465314Y-63752771D01*
X179429600Y-63574200D01*
X179429600Y-63431342D01*
X179465314Y-63252771D01*
X179501028Y-63145628D01*
X179536742Y-63074200D01*
X179608171Y-62967057D01*
X179643885Y-62931342D01*
X179929600Y-63502771D02*
X180501028Y-63502771D01*
X180786742Y-64074200D02*
X180822457Y-64038485D01*
X180893885Y-63931342D01*
X180929600Y-63859914D01*
X180965314Y-63752771D01*
X181001028Y-63574200D01*
X181001028Y-63431342D01*
X180965314Y-63252771D01*
X180929600Y-63145628D01*
X180893885Y-63074200D01*
X180822457Y-62967057D01*
X180786742Y-62931342D01*
X182179600Y-63395628D02*
X181929600Y-63395628D01*
X181929600Y-63788485D02*
X181929600Y-63038485D01*
X182286742Y-63038485D01*
X182893885Y-63288485D02*
X182893885Y-63788485D01*
X182572457Y-63288485D02*
X182572457Y-63681342D01*
X182608171Y-63752771D01*
X182679600Y-63788485D01*
X182786742Y-63788485D01*
X182858171Y-63752771D01*
X182893885Y-63717057D01*
X183215314Y-63752771D02*
X183286742Y-63788485D01*
X183429600Y-63788485D01*
X183501028Y-63752771D01*
X183536742Y-63681342D01*
X183536742Y-63645628D01*
X183501028Y-63574200D01*
X183429600Y-63538485D01*
X183322457Y-63538485D01*
X183251028Y-63502771D01*
X183215314Y-63431342D01*
X183215314Y-63395628D01*
X183251028Y-63324200D01*
X183322457Y-63288485D01*
X183429600Y-63288485D01*
X183501028Y-63324200D01*
X184143885Y-63752771D02*
X184072457Y-63788485D01*
X183929600Y-63788485D01*
X183858171Y-63752771D01*
X183822457Y-63681342D01*
X183822457Y-63395628D01*
X183858171Y-63324200D01*
X183929600Y-63288485D01*
X184072457Y-63288485D01*
X184143885Y-63324200D01*
X184179600Y-63395628D01*
X184179600Y-63467057D01*
X183822457Y-63538485D01*
D11*
X210149523Y-121841390D02*
X210149523Y-121341390D01*
X210149523Y-121579485D02*
X210435238Y-121579485D01*
X210435238Y-121841390D02*
X210435238Y-121341390D01*
X210601904Y-121341390D02*
X210768571Y-121841390D01*
X210935238Y-121341390D01*
X211244761Y-122031866D02*
X211220952Y-122008057D01*
X211173333Y-121936628D01*
X211149523Y-121889009D01*
X211125714Y-121817580D01*
X211101904Y-121698533D01*
X211101904Y-121603295D01*
X211125714Y-121484247D01*
X211149523Y-121412819D01*
X211173333Y-121365200D01*
X211220952Y-121293771D01*
X211244761Y-121269961D01*
X211435238Y-121650914D02*
X211816190Y-121650914D01*
X212006666Y-122031866D02*
X212030476Y-122008057D01*
X212078095Y-121936628D01*
X212101904Y-121889009D01*
X212125714Y-121817580D01*
X212149523Y-121698533D01*
X212149523Y-121603295D01*
X212125714Y-121484247D01*
X212101904Y-121412819D01*
X212078095Y-121365200D01*
X212030476Y-121293771D01*
X212006666Y-121269961D01*
X212697142Y-121341390D02*
X212982857Y-121341390D01*
X212840000Y-121841390D02*
X212840000Y-121341390D01*
X213340000Y-121817580D02*
X213292380Y-121841390D01*
X213197142Y-121841390D01*
X213149523Y-121817580D01*
X213125714Y-121769961D01*
X213125714Y-121579485D01*
X213149523Y-121531866D01*
X213197142Y-121508057D01*
X213292380Y-121508057D01*
X213340000Y-121531866D01*
X213363809Y-121579485D01*
X213363809Y-121627104D01*
X213125714Y-121674723D01*
X213554285Y-121817580D02*
X213601904Y-121841390D01*
X213697142Y-121841390D01*
X213744761Y-121817580D01*
X213768571Y-121769961D01*
X213768571Y-121746152D01*
X213744761Y-121698533D01*
X213697142Y-121674723D01*
X213625714Y-121674723D01*
X213578095Y-121650914D01*
X213554285Y-121603295D01*
X213554285Y-121579485D01*
X213578095Y-121531866D01*
X213625714Y-121508057D01*
X213697142Y-121508057D01*
X213744761Y-121531866D01*
X213911428Y-121508057D02*
X214101904Y-121508057D01*
X213982857Y-121341390D02*
X213982857Y-121769961D01*
X214006666Y-121817580D01*
X214054285Y-121841390D01*
X214101904Y-121841390D01*
X145260476Y-46649485D02*
X145331904Y-46673295D01*
X145355714Y-46697104D01*
X145379523Y-46744723D01*
X145379523Y-46816152D01*
X145355714Y-46863771D01*
X145331904Y-46887580D01*
X145284285Y-46911390D01*
X145093809Y-46911390D01*
X145093809Y-46411390D01*
X145260476Y-46411390D01*
X145308095Y-46435200D01*
X145331904Y-46459009D01*
X145355714Y-46506628D01*
X145355714Y-46554247D01*
X145331904Y-46601866D01*
X145308095Y-46625676D01*
X145260476Y-46649485D01*
X145093809Y-46649485D01*
X145808095Y-46911390D02*
X145808095Y-46649485D01*
X145784285Y-46601866D01*
X145736666Y-46578057D01*
X145641428Y-46578057D01*
X145593809Y-46601866D01*
X145808095Y-46887580D02*
X145760476Y-46911390D01*
X145641428Y-46911390D01*
X145593809Y-46887580D01*
X145570000Y-46839961D01*
X145570000Y-46792342D01*
X145593809Y-46744723D01*
X145641428Y-46720914D01*
X145760476Y-46720914D01*
X145808095Y-46697104D01*
X145974761Y-46578057D02*
X146165238Y-46578057D01*
X146046190Y-46411390D02*
X146046190Y-46839961D01*
X146070000Y-46887580D01*
X146117619Y-46911390D01*
X146165238Y-46911390D01*
X146260476Y-46578057D02*
X146450952Y-46578057D01*
X146331904Y-46411390D02*
X146331904Y-46839961D01*
X146355714Y-46887580D01*
X146403333Y-46911390D01*
X146450952Y-46911390D01*
X146760476Y-47101866D02*
X146736666Y-47078057D01*
X146689047Y-47006628D01*
X146665238Y-46959009D01*
X146641428Y-46887580D01*
X146617619Y-46768533D01*
X146617619Y-46673295D01*
X146641428Y-46554247D01*
X146665238Y-46482819D01*
X146689047Y-46435200D01*
X146736666Y-46363771D01*
X146760476Y-46339961D01*
X146950952Y-46720914D02*
X147331904Y-46720914D01*
X147141428Y-46911390D02*
X147141428Y-46530438D01*
X147522380Y-47101866D02*
X147546190Y-47078057D01*
X147593809Y-47006628D01*
X147617619Y-46959009D01*
X147641428Y-46887580D01*
X147665238Y-46768533D01*
X147665238Y-46673295D01*
X147641428Y-46554247D01*
X147617619Y-46482819D01*
X147593809Y-46435200D01*
X147546190Y-46363771D01*
X147522380Y-46339961D01*
X148212857Y-46411390D02*
X148498571Y-46411390D01*
X148355714Y-46911390D02*
X148355714Y-46411390D01*
X148855714Y-46887580D02*
X148808095Y-46911390D01*
X148712857Y-46911390D01*
X148665238Y-46887580D01*
X148641428Y-46839961D01*
X148641428Y-46649485D01*
X148665238Y-46601866D01*
X148712857Y-46578057D01*
X148808095Y-46578057D01*
X148855714Y-46601866D01*
X148879523Y-46649485D01*
X148879523Y-46697104D01*
X148641428Y-46744723D01*
X149070000Y-46887580D02*
X149117619Y-46911390D01*
X149212857Y-46911390D01*
X149260476Y-46887580D01*
X149284285Y-46839961D01*
X149284285Y-46816152D01*
X149260476Y-46768533D01*
X149212857Y-46744723D01*
X149141428Y-46744723D01*
X149093809Y-46720914D01*
X149070000Y-46673295D01*
X149070000Y-46649485D01*
X149093809Y-46601866D01*
X149141428Y-46578057D01*
X149212857Y-46578057D01*
X149260476Y-46601866D01*
X149427142Y-46578057D02*
X149617619Y-46578057D01*
X149498571Y-46411390D02*
X149498571Y-46839961D01*
X149522380Y-46887580D01*
X149570000Y-46911390D01*
X149617619Y-46911390D01*
D12*
X244597180Y-91483580D02*
X243597180Y-91483580D01*
X244597180Y-90912152D01*
X243597180Y-90912152D01*
X244549561Y-90055009D02*
X244597180Y-90150247D01*
X244597180Y-90340723D01*
X244549561Y-90435961D01*
X244454323Y-90483580D01*
X244073371Y-90483580D01*
X243978133Y-90435961D01*
X243930514Y-90340723D01*
X243930514Y-90150247D01*
X243978133Y-90055009D01*
X244073371Y-90007390D01*
X244168609Y-90007390D01*
X244263847Y-90483580D01*
X243930514Y-89150247D02*
X244740038Y-89150247D01*
X244835276Y-89197866D01*
X244882895Y-89245485D01*
X244930514Y-89340723D01*
X244930514Y-89483580D01*
X244882895Y-89578819D01*
X244549561Y-89150247D02*
X244597180Y-89245485D01*
X244597180Y-89435961D01*
X244549561Y-89531200D01*
X244501942Y-89578819D01*
X244406704Y-89626438D01*
X244120990Y-89626438D01*
X244025752Y-89578819D01*
X243978133Y-89531200D01*
X243930514Y-89435961D01*
X243930514Y-89245485D01*
X243978133Y-89150247D01*
X244597180Y-88245485D02*
X244073371Y-88245485D01*
X243978133Y-88293104D01*
X243930514Y-88388342D01*
X243930514Y-88578819D01*
X243978133Y-88674057D01*
X244549561Y-88245485D02*
X244597180Y-88340723D01*
X244597180Y-88578819D01*
X244549561Y-88674057D01*
X244454323Y-88721676D01*
X244359085Y-88721676D01*
X244263847Y-88674057D01*
X244216228Y-88578819D01*
X244216228Y-88340723D01*
X244168609Y-88245485D01*
X243930514Y-87912152D02*
X243930514Y-87531200D01*
X243597180Y-87769295D02*
X244454323Y-87769295D01*
X244549561Y-87721676D01*
X244597180Y-87626438D01*
X244597180Y-87531200D01*
X244597180Y-87197866D02*
X243930514Y-87197866D01*
X243597180Y-87197866D02*
X243644800Y-87245485D01*
X243692419Y-87197866D01*
X243644800Y-87150247D01*
X243597180Y-87197866D01*
X243692419Y-87197866D01*
X243930514Y-86816914D02*
X244597180Y-86578819D01*
X243930514Y-86340723D01*
X244549561Y-85578819D02*
X244597180Y-85674057D01*
X244597180Y-85864533D01*
X244549561Y-85959771D01*
X244454323Y-86007390D01*
X244073371Y-86007390D01*
X243978133Y-85959771D01*
X243930514Y-85864533D01*
X243930514Y-85674057D01*
X243978133Y-85578819D01*
X244073371Y-85531200D01*
X244168609Y-85531200D01*
X244263847Y-86007390D01*
X244501942Y-83769295D02*
X244549561Y-83816914D01*
X244597180Y-83959771D01*
X244597180Y-84055009D01*
X244549561Y-84197866D01*
X244454323Y-84293104D01*
X244359085Y-84340723D01*
X244168609Y-84388342D01*
X244025752Y-84388342D01*
X243835276Y-84340723D01*
X243740038Y-84293104D01*
X243644800Y-84197866D01*
X243597180Y-84055009D01*
X243597180Y-83959771D01*
X243644800Y-83816914D01*
X243692419Y-83769295D01*
X244597180Y-83197866D02*
X244549561Y-83293104D01*
X244501942Y-83340723D01*
X244406704Y-83388342D01*
X244120990Y-83388342D01*
X244025752Y-83340723D01*
X243978133Y-83293104D01*
X243930514Y-83197866D01*
X243930514Y-83055009D01*
X243978133Y-82959771D01*
X244025752Y-82912152D01*
X244120990Y-82864533D01*
X244406704Y-82864533D01*
X244501942Y-82912152D01*
X244549561Y-82959771D01*
X244597180Y-83055009D01*
X244597180Y-83197866D01*
X243930514Y-82435961D02*
X244597180Y-82435961D01*
X244025752Y-82435961D02*
X243978133Y-82388342D01*
X243930514Y-82293104D01*
X243930514Y-82150247D01*
X243978133Y-82055009D01*
X244073371Y-82007390D01*
X244597180Y-82007390D01*
X243930514Y-81674057D02*
X243930514Y-81293104D01*
X243597180Y-81531200D02*
X244454323Y-81531200D01*
X244549561Y-81483580D01*
X244597180Y-81388342D01*
X244597180Y-81293104D01*
X244597180Y-80531200D02*
X244073371Y-80531200D01*
X243978133Y-80578819D01*
X243930514Y-80674057D01*
X243930514Y-80864533D01*
X243978133Y-80959771D01*
X244549561Y-80531200D02*
X244597180Y-80626438D01*
X244597180Y-80864533D01*
X244549561Y-80959771D01*
X244454323Y-81007390D01*
X244359085Y-81007390D01*
X244263847Y-80959771D01*
X244216228Y-80864533D01*
X244216228Y-80626438D01*
X244168609Y-80531200D01*
X244549561Y-79626438D02*
X244597180Y-79721676D01*
X244597180Y-79912152D01*
X244549561Y-80007390D01*
X244501942Y-80055009D01*
X244406704Y-80102628D01*
X244120990Y-80102628D01*
X244025752Y-80055009D01*
X243978133Y-80007390D01*
X243930514Y-79912152D01*
X243930514Y-79721676D01*
X243978133Y-79626438D01*
X243930514Y-79340723D02*
X243930514Y-78959771D01*
X243597180Y-79197866D02*
X244454323Y-79197866D01*
X244549561Y-79150247D01*
X244597180Y-79055009D01*
X244597180Y-78959771D01*
X244597180Y-78483580D02*
X244549561Y-78578819D01*
X244501942Y-78626438D01*
X244406704Y-78674057D01*
X244120990Y-78674057D01*
X244025752Y-78626438D01*
X243978133Y-78578819D01*
X243930514Y-78483580D01*
X243930514Y-78340723D01*
X243978133Y-78245485D01*
X244025752Y-78197866D01*
X244120990Y-78150247D01*
X244406704Y-78150247D01*
X244501942Y-78197866D01*
X244549561Y-78245485D01*
X244597180Y-78340723D01*
X244597180Y-78483580D01*
X244597180Y-77721676D02*
X243930514Y-77721676D01*
X244120990Y-77721676D02*
X244025752Y-77674057D01*
X243978133Y-77626438D01*
X243930514Y-77531200D01*
X243930514Y-77435961D01*
X173874800Y-45140571D02*
X174017657Y-45188190D01*
X174065276Y-45235809D01*
X174112895Y-45331047D01*
X174112895Y-45473904D01*
X174065276Y-45569142D01*
X174017657Y-45616761D01*
X173922419Y-45664380D01*
X173541466Y-45664380D01*
X173541466Y-44664380D01*
X173874800Y-44664380D01*
X173970038Y-44712000D01*
X174017657Y-44759619D01*
X174065276Y-44854857D01*
X174065276Y-44950095D01*
X174017657Y-45045333D01*
X173970038Y-45092952D01*
X173874800Y-45140571D01*
X173541466Y-45140571D01*
X174970038Y-45664380D02*
X174970038Y-45140571D01*
X174922419Y-45045333D01*
X174827180Y-44997714D01*
X174636704Y-44997714D01*
X174541466Y-45045333D01*
X174970038Y-45616761D02*
X174874800Y-45664380D01*
X174636704Y-45664380D01*
X174541466Y-45616761D01*
X174493847Y-45521523D01*
X174493847Y-45426285D01*
X174541466Y-45331047D01*
X174636704Y-45283428D01*
X174874800Y-45283428D01*
X174970038Y-45235809D01*
X175303371Y-44997714D02*
X175684323Y-44997714D01*
X175446228Y-44664380D02*
X175446228Y-45521523D01*
X175493847Y-45616761D01*
X175589085Y-45664380D01*
X175684323Y-45664380D01*
X175874800Y-44997714D02*
X176255752Y-44997714D01*
X176017657Y-44664380D02*
X176017657Y-45521523D01*
X176065276Y-45616761D01*
X176160514Y-45664380D01*
X176255752Y-45664380D01*
X177922419Y-45569142D02*
X177874800Y-45616761D01*
X177731942Y-45664380D01*
X177636704Y-45664380D01*
X177493847Y-45616761D01*
X177398609Y-45521523D01*
X177350990Y-45426285D01*
X177303371Y-45235809D01*
X177303371Y-45092952D01*
X177350990Y-44902476D01*
X177398609Y-44807238D01*
X177493847Y-44712000D01*
X177636704Y-44664380D01*
X177731942Y-44664380D01*
X177874800Y-44712000D01*
X177922419Y-44759619D01*
X178493847Y-45664380D02*
X178398609Y-45616761D01*
X178350990Y-45569142D01*
X178303371Y-45473904D01*
X178303371Y-45188190D01*
X178350990Y-45092952D01*
X178398609Y-45045333D01*
X178493847Y-44997714D01*
X178636704Y-44997714D01*
X178731942Y-45045333D01*
X178779561Y-45092952D01*
X178827180Y-45188190D01*
X178827180Y-45473904D01*
X178779561Y-45569142D01*
X178731942Y-45616761D01*
X178636704Y-45664380D01*
X178493847Y-45664380D01*
X179255752Y-44997714D02*
X179255752Y-45664380D01*
X179255752Y-45092952D02*
X179303371Y-45045333D01*
X179398609Y-44997714D01*
X179541466Y-44997714D01*
X179636704Y-45045333D01*
X179684323Y-45140571D01*
X179684323Y-45664380D01*
X180160514Y-44997714D02*
X180160514Y-45664380D01*
X180160514Y-45092952D02*
X180208133Y-45045333D01*
X180303371Y-44997714D01*
X180446228Y-44997714D01*
X180541466Y-45045333D01*
X180589085Y-45140571D01*
X180589085Y-45664380D01*
X181446228Y-45616761D02*
X181350990Y-45664380D01*
X181160514Y-45664380D01*
X181065276Y-45616761D01*
X181017657Y-45521523D01*
X181017657Y-45140571D01*
X181065276Y-45045333D01*
X181160514Y-44997714D01*
X181350990Y-44997714D01*
X181446228Y-45045333D01*
X181493847Y-45140571D01*
X181493847Y-45235809D01*
X181017657Y-45331047D01*
X182350990Y-45616761D02*
X182255752Y-45664380D01*
X182065276Y-45664380D01*
X181970038Y-45616761D01*
X181922419Y-45569142D01*
X181874800Y-45473904D01*
X181874800Y-45188190D01*
X181922419Y-45092952D01*
X181970038Y-45045333D01*
X182065276Y-44997714D01*
X182255752Y-44997714D01*
X182350990Y-45045333D01*
X182636704Y-44997714D02*
X183017657Y-44997714D01*
X182779561Y-44664380D02*
X182779561Y-45521523D01*
X182827180Y-45616761D01*
X182922419Y-45664380D01*
X183017657Y-45664380D01*
X183493847Y-45664380D02*
X183398609Y-45616761D01*
X183350990Y-45569142D01*
X183303371Y-45473904D01*
X183303371Y-45188190D01*
X183350990Y-45092952D01*
X183398609Y-45045333D01*
X183493847Y-44997714D01*
X183636704Y-44997714D01*
X183731942Y-45045333D01*
X183779561Y-45092952D01*
X183827180Y-45188190D01*
X183827180Y-45473904D01*
X183779561Y-45569142D01*
X183731942Y-45616761D01*
X183636704Y-45664380D01*
X183493847Y-45664380D01*
X184255752Y-45664380D02*
X184255752Y-44997714D01*
X184255752Y-45188190D02*
X184303371Y-45092952D01*
X184350990Y-45045333D01*
X184446228Y-44997714D01*
X184541466Y-44997714D01*
X184827180Y-45616761D02*
X184922419Y-45664380D01*
X185112895Y-45664380D01*
X185208133Y-45616761D01*
X185255752Y-45521523D01*
X185255752Y-45473904D01*
X185208133Y-45378666D01*
X185112895Y-45331047D01*
X184970038Y-45331047D01*
X184874800Y-45283428D01*
X184827180Y-45188190D01*
X184827180Y-45140571D01*
X184874800Y-45045333D01*
X184970038Y-44997714D01*
X185112895Y-44997714D01*
X185208133Y-45045333D01*
D11*
X145379523Y-122450990D02*
X145379523Y-121950990D01*
X145379523Y-122189085D02*
X145665238Y-122189085D01*
X145665238Y-122450990D02*
X145665238Y-121950990D01*
X145831904Y-121950990D02*
X145998571Y-122450990D01*
X146165238Y-121950990D01*
X146474761Y-122641466D02*
X146450952Y-122617657D01*
X146403333Y-122546228D01*
X146379523Y-122498609D01*
X146355714Y-122427180D01*
X146331904Y-122308133D01*
X146331904Y-122212895D01*
X146355714Y-122093847D01*
X146379523Y-122022419D01*
X146403333Y-121974800D01*
X146450952Y-121903371D01*
X146474761Y-121879561D01*
X146665238Y-122260514D02*
X147046190Y-122260514D01*
X146855714Y-122450990D02*
X146855714Y-122070038D01*
X147236666Y-122641466D02*
X147260476Y-122617657D01*
X147308095Y-122546228D01*
X147331904Y-122498609D01*
X147355714Y-122427180D01*
X147379523Y-122308133D01*
X147379523Y-122212895D01*
X147355714Y-122093847D01*
X147331904Y-122022419D01*
X147308095Y-121974800D01*
X147260476Y-121903371D01*
X147236666Y-121879561D01*
X147927142Y-121950990D02*
X148212857Y-121950990D01*
X148070000Y-122450990D02*
X148070000Y-121950990D01*
X148570000Y-122427180D02*
X148522380Y-122450990D01*
X148427142Y-122450990D01*
X148379523Y-122427180D01*
X148355714Y-122379561D01*
X148355714Y-122189085D01*
X148379523Y-122141466D01*
X148427142Y-122117657D01*
X148522380Y-122117657D01*
X148570000Y-122141466D01*
X148593809Y-122189085D01*
X148593809Y-122236704D01*
X148355714Y-122284323D01*
X148784285Y-122427180D02*
X148831904Y-122450990D01*
X148927142Y-122450990D01*
X148974761Y-122427180D01*
X148998571Y-122379561D01*
X148998571Y-122355752D01*
X148974761Y-122308133D01*
X148927142Y-122284323D01*
X148855714Y-122284323D01*
X148808095Y-122260514D01*
X148784285Y-122212895D01*
X148784285Y-122189085D01*
X148808095Y-122141466D01*
X148855714Y-122117657D01*
X148927142Y-122117657D01*
X148974761Y-122141466D01*
X149141428Y-122117657D02*
X149331904Y-122117657D01*
X149212857Y-121950990D02*
X149212857Y-122379561D01*
X149236666Y-122427180D01*
X149284285Y-122450990D01*
X149331904Y-122450990D01*
X170026152Y-52339085D02*
X170097580Y-52362895D01*
X170121390Y-52386704D01*
X170145200Y-52434323D01*
X170145200Y-52505752D01*
X170121390Y-52553371D01*
X170097580Y-52577180D01*
X170049961Y-52600990D01*
X169859485Y-52600990D01*
X169859485Y-52100990D01*
X170026152Y-52100990D01*
X170073771Y-52124800D01*
X170097580Y-52148609D01*
X170121390Y-52196228D01*
X170121390Y-52243847D01*
X170097580Y-52291466D01*
X170073771Y-52315276D01*
X170026152Y-52339085D01*
X169859485Y-52339085D01*
X170573771Y-52600990D02*
X170573771Y-52339085D01*
X170549961Y-52291466D01*
X170502342Y-52267657D01*
X170407104Y-52267657D01*
X170359485Y-52291466D01*
X170573771Y-52577180D02*
X170526152Y-52600990D01*
X170407104Y-52600990D01*
X170359485Y-52577180D01*
X170335676Y-52529561D01*
X170335676Y-52481942D01*
X170359485Y-52434323D01*
X170407104Y-52410514D01*
X170526152Y-52410514D01*
X170573771Y-52386704D01*
X170740438Y-52267657D02*
X170930914Y-52267657D01*
X170811866Y-52100990D02*
X170811866Y-52529561D01*
X170835676Y-52577180D01*
X170883295Y-52600990D01*
X170930914Y-52600990D01*
X171026152Y-52267657D02*
X171216628Y-52267657D01*
X171097580Y-52100990D02*
X171097580Y-52529561D01*
X171121390Y-52577180D01*
X171169009Y-52600990D01*
X171216628Y-52600990D01*
X171526152Y-52791466D02*
X171502342Y-52767657D01*
X171454723Y-52696228D01*
X171430914Y-52648609D01*
X171407104Y-52577180D01*
X171383295Y-52458133D01*
X171383295Y-52362895D01*
X171407104Y-52243847D01*
X171430914Y-52172419D01*
X171454723Y-52124800D01*
X171502342Y-52053371D01*
X171526152Y-52029561D01*
X171716628Y-52410514D02*
X172097580Y-52410514D01*
X172288057Y-52791466D02*
X172311866Y-52767657D01*
X172359485Y-52696228D01*
X172383295Y-52648609D01*
X172407104Y-52577180D01*
X172430914Y-52458133D01*
X172430914Y-52362895D01*
X172407104Y-52243847D01*
X172383295Y-52172419D01*
X172359485Y-52124800D01*
X172311866Y-52053371D01*
X172288057Y-52029561D01*
X210030476Y-47767085D02*
X210101904Y-47790895D01*
X210125714Y-47814704D01*
X210149523Y-47862323D01*
X210149523Y-47933752D01*
X210125714Y-47981371D01*
X210101904Y-48005180D01*
X210054285Y-48028990D01*
X209863809Y-48028990D01*
X209863809Y-47528990D01*
X210030476Y-47528990D01*
X210078095Y-47552800D01*
X210101904Y-47576609D01*
X210125714Y-47624228D01*
X210125714Y-47671847D01*
X210101904Y-47719466D01*
X210078095Y-47743276D01*
X210030476Y-47767085D01*
X209863809Y-47767085D01*
X210578095Y-48028990D02*
X210578095Y-47767085D01*
X210554285Y-47719466D01*
X210506666Y-47695657D01*
X210411428Y-47695657D01*
X210363809Y-47719466D01*
X210578095Y-48005180D02*
X210530476Y-48028990D01*
X210411428Y-48028990D01*
X210363809Y-48005180D01*
X210340000Y-47957561D01*
X210340000Y-47909942D01*
X210363809Y-47862323D01*
X210411428Y-47838514D01*
X210530476Y-47838514D01*
X210578095Y-47814704D01*
X210744761Y-47695657D02*
X210935238Y-47695657D01*
X210816190Y-47528990D02*
X210816190Y-47957561D01*
X210840000Y-48005180D01*
X210887619Y-48028990D01*
X210935238Y-48028990D01*
X211030476Y-47695657D02*
X211220952Y-47695657D01*
X211101904Y-47528990D02*
X211101904Y-47957561D01*
X211125714Y-48005180D01*
X211173333Y-48028990D01*
X211220952Y-48028990D01*
X211530476Y-48219466D02*
X211506666Y-48195657D01*
X211459047Y-48124228D01*
X211435238Y-48076609D01*
X211411428Y-48005180D01*
X211387619Y-47886133D01*
X211387619Y-47790895D01*
X211411428Y-47671847D01*
X211435238Y-47600419D01*
X211459047Y-47552800D01*
X211506666Y-47481371D01*
X211530476Y-47457561D01*
X211720952Y-47838514D02*
X212101904Y-47838514D01*
X212292380Y-48219466D02*
X212316190Y-48195657D01*
X212363809Y-48124228D01*
X212387619Y-48076609D01*
X212411428Y-48005180D01*
X212435238Y-47886133D01*
X212435238Y-47790895D01*
X212411428Y-47671847D01*
X212387619Y-47600419D01*
X212363809Y-47552800D01*
X212316190Y-47481371D01*
X212292380Y-47457561D01*
X212982857Y-47528990D02*
X213268571Y-47528990D01*
X213125714Y-48028990D02*
X213125714Y-47528990D01*
X213625714Y-48005180D02*
X213578095Y-48028990D01*
X213482857Y-48028990D01*
X213435238Y-48005180D01*
X213411428Y-47957561D01*
X213411428Y-47767085D01*
X213435238Y-47719466D01*
X213482857Y-47695657D01*
X213578095Y-47695657D01*
X213625714Y-47719466D01*
X213649523Y-47767085D01*
X213649523Y-47814704D01*
X213411428Y-47862323D01*
X213840000Y-48005180D02*
X213887619Y-48028990D01*
X213982857Y-48028990D01*
X214030476Y-48005180D01*
X214054285Y-47957561D01*
X214054285Y-47933752D01*
X214030476Y-47886133D01*
X213982857Y-47862323D01*
X213911428Y-47862323D01*
X213863809Y-47838514D01*
X213840000Y-47790895D01*
X213840000Y-47767085D01*
X213863809Y-47719466D01*
X213911428Y-47695657D01*
X213982857Y-47695657D01*
X214030476Y-47719466D01*
X214197142Y-47695657D02*
X214387619Y-47695657D01*
X214268571Y-47528990D02*
X214268571Y-47957561D01*
X214292380Y-48005180D01*
X214340000Y-48028990D01*
X214387619Y-48028990D01*
X168367200Y-121180990D02*
X168367200Y-120680990D01*
X168367200Y-120919085D02*
X168652914Y-120919085D01*
X168652914Y-121180990D02*
X168652914Y-120680990D01*
X168819580Y-120680990D02*
X168986247Y-121180990D01*
X169152914Y-120680990D01*
X169462438Y-121371466D02*
X169438628Y-121347657D01*
X169391009Y-121276228D01*
X169367200Y-121228609D01*
X169343390Y-121157180D01*
X169319580Y-121038133D01*
X169319580Y-120942895D01*
X169343390Y-120823847D01*
X169367200Y-120752419D01*
X169391009Y-120704800D01*
X169438628Y-120633371D01*
X169462438Y-120609561D01*
X169652914Y-120990514D02*
X170033866Y-120990514D01*
X169843390Y-121180990D02*
X169843390Y-120800038D01*
X170224342Y-121371466D02*
X170248152Y-121347657D01*
X170295771Y-121276228D01*
X170319580Y-121228609D01*
X170343390Y-121157180D01*
X170367200Y-121038133D01*
X170367200Y-120942895D01*
X170343390Y-120823847D01*
X170319580Y-120752419D01*
X170295771Y-120704800D01*
X170248152Y-120633371D01*
X170224342Y-120609561D01*
D12*
X175027295Y-125217180D02*
X175027295Y-124217180D01*
X175027295Y-124693371D02*
X175598723Y-124693371D01*
X175598723Y-125217180D02*
X175598723Y-124217180D01*
X175932057Y-124217180D02*
X176265390Y-125217180D01*
X176598723Y-124217180D01*
X178265390Y-125121942D02*
X178217771Y-125169561D01*
X178074914Y-125217180D01*
X177979676Y-125217180D01*
X177836819Y-125169561D01*
X177741580Y-125074323D01*
X177693961Y-124979085D01*
X177646342Y-124788609D01*
X177646342Y-124645752D01*
X177693961Y-124455276D01*
X177741580Y-124360038D01*
X177836819Y-124264800D01*
X177979676Y-124217180D01*
X178074914Y-124217180D01*
X178217771Y-124264800D01*
X178265390Y-124312419D01*
X178836819Y-125217180D02*
X178741580Y-125169561D01*
X178693961Y-125121942D01*
X178646342Y-125026704D01*
X178646342Y-124740990D01*
X178693961Y-124645752D01*
X178741580Y-124598133D01*
X178836819Y-124550514D01*
X178979676Y-124550514D01*
X179074914Y-124598133D01*
X179122533Y-124645752D01*
X179170152Y-124740990D01*
X179170152Y-125026704D01*
X179122533Y-125121942D01*
X179074914Y-125169561D01*
X178979676Y-125217180D01*
X178836819Y-125217180D01*
X179598723Y-124550514D02*
X179598723Y-125217180D01*
X179598723Y-124645752D02*
X179646342Y-124598133D01*
X179741580Y-124550514D01*
X179884438Y-124550514D01*
X179979676Y-124598133D01*
X180027295Y-124693371D01*
X180027295Y-125217180D01*
X180503485Y-124550514D02*
X180503485Y-125217180D01*
X180503485Y-124645752D02*
X180551104Y-124598133D01*
X180646342Y-124550514D01*
X180789200Y-124550514D01*
X180884438Y-124598133D01*
X180932057Y-124693371D01*
X180932057Y-125217180D01*
X181789200Y-125169561D02*
X181693961Y-125217180D01*
X181503485Y-125217180D01*
X181408247Y-125169561D01*
X181360628Y-125074323D01*
X181360628Y-124693371D01*
X181408247Y-124598133D01*
X181503485Y-124550514D01*
X181693961Y-124550514D01*
X181789200Y-124598133D01*
X181836819Y-124693371D01*
X181836819Y-124788609D01*
X181360628Y-124883847D01*
X182693961Y-125169561D02*
X182598723Y-125217180D01*
X182408247Y-125217180D01*
X182313009Y-125169561D01*
X182265390Y-125121942D01*
X182217771Y-125026704D01*
X182217771Y-124740990D01*
X182265390Y-124645752D01*
X182313009Y-124598133D01*
X182408247Y-124550514D01*
X182598723Y-124550514D01*
X182693961Y-124598133D01*
X182979676Y-124550514D02*
X183360628Y-124550514D01*
X183122533Y-124217180D02*
X183122533Y-125074323D01*
X183170152Y-125169561D01*
X183265390Y-125217180D01*
X183360628Y-125217180D01*
X183836819Y-125217180D02*
X183741580Y-125169561D01*
X183693961Y-125121942D01*
X183646342Y-125026704D01*
X183646342Y-124740990D01*
X183693961Y-124645752D01*
X183741580Y-124598133D01*
X183836819Y-124550514D01*
X183979676Y-124550514D01*
X184074914Y-124598133D01*
X184122533Y-124645752D01*
X184170152Y-124740990D01*
X184170152Y-125026704D01*
X184122533Y-125121942D01*
X184074914Y-125169561D01*
X183979676Y-125217180D01*
X183836819Y-125217180D01*
X184598723Y-125217180D02*
X184598723Y-124550514D01*
X184598723Y-124740990D02*
X184646342Y-124645752D01*
X184693961Y-124598133D01*
X184789200Y-124550514D01*
X184884438Y-124550514D01*
X185170152Y-125169561D02*
X185265390Y-125217180D01*
X185455866Y-125217180D01*
X185551104Y-125169561D01*
X185598723Y-125074323D01*
X185598723Y-125026704D01*
X185551104Y-124931466D01*
X185455866Y-124883847D01*
X185313009Y-124883847D01*
X185217771Y-124836228D01*
X185170152Y-124740990D01*
X185170152Y-124693371D01*
X185217771Y-124598133D01*
X185313009Y-124550514D01*
X185455866Y-124550514D01*
X185551104Y-124598133D01*
D11*
X170026152Y-49189485D02*
X170097580Y-49213295D01*
X170121390Y-49237104D01*
X170145200Y-49284723D01*
X170145200Y-49356152D01*
X170121390Y-49403771D01*
X170097580Y-49427580D01*
X170049961Y-49451390D01*
X169859485Y-49451390D01*
X169859485Y-48951390D01*
X170026152Y-48951390D01*
X170073771Y-48975200D01*
X170097580Y-48999009D01*
X170121390Y-49046628D01*
X170121390Y-49094247D01*
X170097580Y-49141866D01*
X170073771Y-49165676D01*
X170026152Y-49189485D01*
X169859485Y-49189485D01*
X170573771Y-49451390D02*
X170573771Y-49189485D01*
X170549961Y-49141866D01*
X170502342Y-49118057D01*
X170407104Y-49118057D01*
X170359485Y-49141866D01*
X170573771Y-49427580D02*
X170526152Y-49451390D01*
X170407104Y-49451390D01*
X170359485Y-49427580D01*
X170335676Y-49379961D01*
X170335676Y-49332342D01*
X170359485Y-49284723D01*
X170407104Y-49260914D01*
X170526152Y-49260914D01*
X170573771Y-49237104D01*
X170740438Y-49118057D02*
X170930914Y-49118057D01*
X170811866Y-48951390D02*
X170811866Y-49379961D01*
X170835676Y-49427580D01*
X170883295Y-49451390D01*
X170930914Y-49451390D01*
X171026152Y-49118057D02*
X171216628Y-49118057D01*
X171097580Y-48951390D02*
X171097580Y-49379961D01*
X171121390Y-49427580D01*
X171169009Y-49451390D01*
X171216628Y-49451390D01*
X171526152Y-49641866D02*
X171502342Y-49618057D01*
X171454723Y-49546628D01*
X171430914Y-49499009D01*
X171407104Y-49427580D01*
X171383295Y-49308533D01*
X171383295Y-49213295D01*
X171407104Y-49094247D01*
X171430914Y-49022819D01*
X171454723Y-48975200D01*
X171502342Y-48903771D01*
X171526152Y-48879961D01*
X171716628Y-49260914D02*
X172097580Y-49260914D01*
X171907104Y-49451390D02*
X171907104Y-49070438D01*
X172288057Y-49641866D02*
X172311866Y-49618057D01*
X172359485Y-49546628D01*
X172383295Y-49499009D01*
X172407104Y-49427580D01*
X172430914Y-49308533D01*
X172430914Y-49213295D01*
X172407104Y-49094247D01*
X172383295Y-49022819D01*
X172359485Y-48975200D01*
X172311866Y-48903771D01*
X172288057Y-48879961D01*
D12*
X115920780Y-91780476D02*
X114920780Y-91780476D01*
X114920780Y-91399523D01*
X114968400Y-91304285D01*
X115016019Y-91256666D01*
X115111257Y-91209047D01*
X115254114Y-91209047D01*
X115349352Y-91256666D01*
X115396971Y-91304285D01*
X115444590Y-91399523D01*
X115444590Y-91780476D01*
X115920780Y-90637619D02*
X115873161Y-90732857D01*
X115825542Y-90780476D01*
X115730304Y-90828095D01*
X115444590Y-90828095D01*
X115349352Y-90780476D01*
X115301733Y-90732857D01*
X115254114Y-90637619D01*
X115254114Y-90494761D01*
X115301733Y-90399523D01*
X115349352Y-90351904D01*
X115444590Y-90304285D01*
X115730304Y-90304285D01*
X115825542Y-90351904D01*
X115873161Y-90399523D01*
X115920780Y-90494761D01*
X115920780Y-90637619D01*
X115873161Y-89923333D02*
X115920780Y-89828095D01*
X115920780Y-89637619D01*
X115873161Y-89542380D01*
X115777923Y-89494761D01*
X115730304Y-89494761D01*
X115635066Y-89542380D01*
X115587447Y-89637619D01*
X115587447Y-89780476D01*
X115539828Y-89875714D01*
X115444590Y-89923333D01*
X115396971Y-89923333D01*
X115301733Y-89875714D01*
X115254114Y-89780476D01*
X115254114Y-89637619D01*
X115301733Y-89542380D01*
X115920780Y-89066190D02*
X115254114Y-89066190D01*
X114920780Y-89066190D02*
X114968400Y-89113809D01*
X115016019Y-89066190D01*
X114968400Y-89018571D01*
X114920780Y-89066190D01*
X115016019Y-89066190D01*
X115254114Y-88732857D02*
X115254114Y-88351904D01*
X114920780Y-88590000D02*
X115777923Y-88590000D01*
X115873161Y-88542380D01*
X115920780Y-88447142D01*
X115920780Y-88351904D01*
X115920780Y-88018571D02*
X115254114Y-88018571D01*
X114920780Y-88018571D02*
X114968400Y-88066190D01*
X115016019Y-88018571D01*
X114968400Y-87970952D01*
X114920780Y-88018571D01*
X115016019Y-88018571D01*
X115254114Y-87637619D02*
X115920780Y-87399523D01*
X115254114Y-87161428D01*
X115873161Y-86399523D02*
X115920780Y-86494761D01*
X115920780Y-86685238D01*
X115873161Y-86780476D01*
X115777923Y-86828095D01*
X115396971Y-86828095D01*
X115301733Y-86780476D01*
X115254114Y-86685238D01*
X115254114Y-86494761D01*
X115301733Y-86399523D01*
X115396971Y-86351904D01*
X115492209Y-86351904D01*
X115587447Y-86828095D01*
X115825542Y-84590000D02*
X115873161Y-84637619D01*
X115920780Y-84780476D01*
X115920780Y-84875714D01*
X115873161Y-85018571D01*
X115777923Y-85113809D01*
X115682685Y-85161428D01*
X115492209Y-85209047D01*
X115349352Y-85209047D01*
X115158876Y-85161428D01*
X115063638Y-85113809D01*
X114968400Y-85018571D01*
X114920780Y-84875714D01*
X114920780Y-84780476D01*
X114968400Y-84637619D01*
X115016019Y-84590000D01*
X115920780Y-84018571D02*
X115873161Y-84113809D01*
X115825542Y-84161428D01*
X115730304Y-84209047D01*
X115444590Y-84209047D01*
X115349352Y-84161428D01*
X115301733Y-84113809D01*
X115254114Y-84018571D01*
X115254114Y-83875714D01*
X115301733Y-83780476D01*
X115349352Y-83732857D01*
X115444590Y-83685238D01*
X115730304Y-83685238D01*
X115825542Y-83732857D01*
X115873161Y-83780476D01*
X115920780Y-83875714D01*
X115920780Y-84018571D01*
X115254114Y-83256666D02*
X115920780Y-83256666D01*
X115349352Y-83256666D02*
X115301733Y-83209047D01*
X115254114Y-83113809D01*
X115254114Y-82970952D01*
X115301733Y-82875714D01*
X115396971Y-82828095D01*
X115920780Y-82828095D01*
X115254114Y-82494761D02*
X115254114Y-82113809D01*
X114920780Y-82351904D02*
X115777923Y-82351904D01*
X115873161Y-82304285D01*
X115920780Y-82209047D01*
X115920780Y-82113809D01*
X115920780Y-81351904D02*
X115396971Y-81351904D01*
X115301733Y-81399523D01*
X115254114Y-81494761D01*
X115254114Y-81685238D01*
X115301733Y-81780476D01*
X115873161Y-81351904D02*
X115920780Y-81447142D01*
X115920780Y-81685238D01*
X115873161Y-81780476D01*
X115777923Y-81828095D01*
X115682685Y-81828095D01*
X115587447Y-81780476D01*
X115539828Y-81685238D01*
X115539828Y-81447142D01*
X115492209Y-81351904D01*
X115873161Y-80447142D02*
X115920780Y-80542380D01*
X115920780Y-80732857D01*
X115873161Y-80828095D01*
X115825542Y-80875714D01*
X115730304Y-80923333D01*
X115444590Y-80923333D01*
X115349352Y-80875714D01*
X115301733Y-80828095D01*
X115254114Y-80732857D01*
X115254114Y-80542380D01*
X115301733Y-80447142D01*
X115254114Y-80161428D02*
X115254114Y-79780476D01*
X114920780Y-80018571D02*
X115777923Y-80018571D01*
X115873161Y-79970952D01*
X115920780Y-79875714D01*
X115920780Y-79780476D01*
X115920780Y-79304285D02*
X115873161Y-79399523D01*
X115825542Y-79447142D01*
X115730304Y-79494761D01*
X115444590Y-79494761D01*
X115349352Y-79447142D01*
X115301733Y-79399523D01*
X115254114Y-79304285D01*
X115254114Y-79161428D01*
X115301733Y-79066190D01*
X115349352Y-79018571D01*
X115444590Y-78970952D01*
X115730304Y-78970952D01*
X115825542Y-79018571D01*
X115873161Y-79066190D01*
X115920780Y-79161428D01*
X115920780Y-79304285D01*
X115920780Y-78542380D02*
X115254114Y-78542380D01*
X115444590Y-78542380D02*
X115349352Y-78494761D01*
X115301733Y-78447142D01*
X115254114Y-78351904D01*
X115254114Y-78256666D01*
D10*
X175608171Y-72068885D02*
X175179600Y-72068885D01*
X175393885Y-72068885D02*
X175393885Y-71318885D01*
X175322457Y-71426028D01*
X175251028Y-71497457D01*
X175179600Y-71533171D01*
X175893885Y-71854600D02*
X176251028Y-71854600D01*
X175822457Y-72068885D02*
X176072457Y-71318885D01*
X176322457Y-72068885D01*
X177393885Y-71676028D02*
X177501028Y-71711742D01*
X177536742Y-71747457D01*
X177572457Y-71818885D01*
X177572457Y-71926028D01*
X177536742Y-71997457D01*
X177501028Y-72033171D01*
X177429600Y-72068885D01*
X177143885Y-72068885D01*
X177143885Y-71318885D01*
X177393885Y-71318885D01*
X177465314Y-71354600D01*
X177501028Y-71390314D01*
X177536742Y-71461742D01*
X177536742Y-71533171D01*
X177501028Y-71604600D01*
X177465314Y-71640314D01*
X177393885Y-71676028D01*
X177143885Y-71676028D01*
X178215314Y-72068885D02*
X178215314Y-71676028D01*
X178179600Y-71604600D01*
X178108171Y-71568885D01*
X177965314Y-71568885D01*
X177893885Y-71604600D01*
X178215314Y-72033171D02*
X178143885Y-72068885D01*
X177965314Y-72068885D01*
X177893885Y-72033171D01*
X177858171Y-71961742D01*
X177858171Y-71890314D01*
X177893885Y-71818885D01*
X177965314Y-71783171D01*
X178143885Y-71783171D01*
X178215314Y-71747457D01*
X178465314Y-71568885D02*
X178751028Y-71568885D01*
X178572457Y-71318885D02*
X178572457Y-71961742D01*
X178608171Y-72033171D01*
X178679600Y-72068885D01*
X178751028Y-72068885D01*
X178893885Y-71568885D02*
X179179600Y-71568885D01*
X179001028Y-71318885D02*
X179001028Y-71961742D01*
X179036742Y-72033171D01*
X179108171Y-72068885D01*
X179179600Y-72068885D01*
X179643885Y-72354600D02*
X179608171Y-72318885D01*
X179536742Y-72211742D01*
X179501028Y-72140314D01*
X179465314Y-72033171D01*
X179429600Y-71854600D01*
X179429600Y-71711742D01*
X179465314Y-71533171D01*
X179501028Y-71426028D01*
X179536742Y-71354600D01*
X179608171Y-71247457D01*
X179643885Y-71211742D01*
X179929600Y-71783171D02*
X180501028Y-71783171D01*
X180215314Y-72068885D02*
X180215314Y-71497457D01*
X180786742Y-72354600D02*
X180822457Y-72318885D01*
X180893885Y-72211742D01*
X180929600Y-72140314D01*
X180965314Y-72033171D01*
X181001028Y-71854600D01*
X181001028Y-71711742D01*
X180965314Y-71533171D01*
X180929600Y-71426028D01*
X180893885Y-71354600D01*
X180822457Y-71247457D01*
X180786742Y-71211742D01*
X182179600Y-71676028D02*
X181929600Y-71676028D01*
X181929600Y-72068885D02*
X181929600Y-71318885D01*
X182286742Y-71318885D01*
X182893885Y-71568885D02*
X182893885Y-72068885D01*
X182572457Y-71568885D02*
X182572457Y-71961742D01*
X182608171Y-72033171D01*
X182679600Y-72068885D01*
X182786742Y-72068885D01*
X182858171Y-72033171D01*
X182893885Y-71997457D01*
X183215314Y-72033171D02*
X183286742Y-72068885D01*
X183429600Y-72068885D01*
X183501028Y-72033171D01*
X183536742Y-71961742D01*
X183536742Y-71926028D01*
X183501028Y-71854600D01*
X183429600Y-71818885D01*
X183322457Y-71818885D01*
X183251028Y-71783171D01*
X183215314Y-71711742D01*
X183215314Y-71676028D01*
X183251028Y-71604600D01*
X183322457Y-71568885D01*
X183429600Y-71568885D01*
X183501028Y-71604600D01*
X184143885Y-72033171D02*
X184072457Y-72068885D01*
X183929600Y-72068885D01*
X183858171Y-72033171D01*
X183822457Y-71961742D01*
X183822457Y-71676028D01*
X183858171Y-71604600D01*
X183929600Y-71568885D01*
X184072457Y-71568885D01*
X184143885Y-71604600D01*
X184179600Y-71676028D01*
X184179600Y-71747457D01*
X183822457Y-71818885D01*
%TO.C,TP4*%
X148020000Y-120650000D02*
G75*
G03*
X148020000Y-120650000I-700000J0D01*
G01*
%TO.C,U2*%
X206957092Y-44225250D02*
X217117092Y-44225250D01*
X238275125Y-65460269D02*
X229557500Y-61840769D01*
X195781092Y-58957250D02*
X195273092Y-56671250D01*
X227779500Y-54107503D02*
X224223500Y-52300835D01*
X196289092Y-54131250D02*
X199845092Y-52324582D01*
X206944680Y-125647324D02*
X217104680Y-125647324D01*
X182776125Y-100173602D02*
X182776125Y-69689602D01*
X195768680Y-110915324D02*
X195260680Y-113201324D01*
X238262713Y-104412305D02*
X229545088Y-108031805D01*
X196276680Y-115741324D02*
X199832680Y-117547992D01*
X222964684Y-52329503D02*
X220413500Y-46487503D01*
X228275088Y-110857555D02*
X228783088Y-113143555D01*
X201103908Y-52353250D02*
X203655092Y-46511250D01*
X240815125Y-100429602D02*
X240815125Y-69401272D01*
X185303713Y-104123975D02*
X194498680Y-108089574D01*
X222952272Y-117543071D02*
X220401088Y-123385071D01*
X228287500Y-59015019D02*
X228795500Y-56729019D01*
X201091496Y-117519324D02*
X203642680Y-123361324D01*
X227767088Y-115765071D02*
X224211088Y-117571739D01*
X185316125Y-65748599D02*
X194511092Y-61783000D01*
X228287522Y-59015027D02*
G75*
G03*
X229557500Y-61840769I2161866J-726644D01*
G01*
X227585658Y-115908886D02*
G75*
G03*
X228601659Y-113143555I-1661830J2179875D01*
G01*
X195768678Y-110915323D02*
G75*
G03*
X194498680Y-108089574I-2161980J726592D01*
G01*
X206957093Y-44225231D02*
G75*
G03*
X203655092Y-46511250I-103105J-3378840D01*
G01*
X240815111Y-69401273D02*
G75*
G03*
X238275125Y-65492019I-4876723J-388798D01*
G01*
X185316114Y-65780328D02*
G75*
G03*
X182776125Y-69689602I2336874J-4298143D01*
G01*
X222952272Y-117543072D02*
G75*
G03*
X224211088Y-117571739I672276J1868081D01*
G01*
X220413501Y-46487503D02*
G75*
G03*
X217111500Y-44201503I-3198853J-1092788D01*
G01*
X203642680Y-123361324D02*
G75*
G03*
X206944680Y-125647324I3198853J1092788D01*
G01*
X182763713Y-100182972D02*
G75*
G03*
X185303713Y-104092225I4876775J388841D01*
G01*
X201103904Y-52353262D02*
G75*
G03*
X199845092Y-52324582I-672316J-1869009D01*
G01*
X196289086Y-53905910D02*
G75*
G03*
X195273092Y-56671250I1661802J-2179861D01*
G01*
X195260678Y-113201324D02*
G75*
G03*
X196276680Y-115741324I2822080J-344367D01*
G01*
X229545088Y-108031804D02*
G75*
G03*
X228275088Y-110857555I892000J-2099167D01*
G01*
X199832680Y-117547992D02*
G75*
G03*
X201091496Y-117519324I586538J1896781D01*
G01*
X228614054Y-56729011D02*
G75*
G03*
X227598071Y-53963687I-1839566J893440D01*
G01*
X238262711Y-104380551D02*
G75*
G03*
X240802713Y-100471302I-2336703J4298050D01*
G01*
X217099088Y-125671069D02*
G75*
G03*
X220401088Y-123385071I103140J3378798D01*
G01*
X194511090Y-61782994D02*
G75*
G03*
X195781092Y-58957250I-891902J2099123D01*
G01*
X224223491Y-52300865D02*
G75*
G03*
X222964684Y-52329503I-586603J-1895606D01*
G01*
%TO.C,TP8*%
X212790000Y-120015000D02*
G75*
G03*
X212790000Y-120015000I-700000J0D01*
G01*
D13*
%TO.C,F4*%
X196115000Y-107327500D02*
X196115000Y-110707500D01*
X196115000Y-110707500D02*
X163295000Y-110707500D01*
X197860000Y-107327500D02*
X196115000Y-107327500D01*
X163295000Y-110707500D02*
X163295000Y-107327500D01*
X196115000Y-103947500D02*
X196115000Y-107327500D01*
X163295000Y-107327500D02*
X163295000Y-103947500D01*
X161550000Y-107327500D02*
X163295000Y-107327500D01*
X163295000Y-103947500D02*
X196115000Y-103947500D01*
D10*
%TO.C,J1*%
X171032000Y-115777000D02*
X171032000Y-116087000D01*
X172452000Y-123367000D02*
X171032000Y-123367000D01*
X189902000Y-116087000D02*
X189902000Y-115777000D01*
X171032000Y-123367000D02*
X171032000Y-117607000D01*
X189902000Y-123367000D02*
X188482000Y-123367000D01*
X172452000Y-122867000D02*
X172452000Y-123367000D01*
X189902000Y-115777000D02*
X171032000Y-115777000D01*
X188482000Y-123367000D02*
X188482000Y-122867000D01*
X188482000Y-122867000D02*
X172452000Y-122867000D01*
X189902000Y-117607000D02*
X189902000Y-123367000D01*
%TO.C,TP5*%
X212790000Y-49400000D02*
G75*
G03*
X212790000Y-49400000I-700000J0D01*
G01*
D13*
%TO.C,F2*%
X163295000Y-99047500D02*
X163295000Y-95667500D01*
X197860000Y-99047500D02*
X196115000Y-99047500D01*
X163295000Y-95667500D02*
X196115000Y-95667500D01*
X161550000Y-99047500D02*
X163295000Y-99047500D01*
X196115000Y-95667500D02*
X196115000Y-99047500D01*
X196115000Y-102427500D02*
X163295000Y-102427500D01*
X196115000Y-99047500D02*
X196115000Y-102427500D01*
X163295000Y-102427500D02*
X163295000Y-99047500D01*
%TO.C,F3*%
X197860000Y-63295000D02*
X196115000Y-63295000D01*
X196115000Y-59915000D02*
X196115000Y-63295000D01*
X196115000Y-63295000D02*
X196115000Y-66675000D01*
X196115000Y-66675000D02*
X163295000Y-66675000D01*
X163295000Y-66675000D02*
X163295000Y-63295000D01*
X161550000Y-63295000D02*
X163295000Y-63295000D01*
X163295000Y-63295000D02*
X163295000Y-59915000D01*
X163295000Y-59915000D02*
X196115000Y-59915000D01*
D10*
%TO.C,J2*%
X173095000Y-46696000D02*
X174515000Y-46696000D01*
X173095000Y-53976000D02*
X173095000Y-54286000D01*
X184545000Y-46696000D02*
X185965000Y-46696000D01*
X174515000Y-46696000D02*
X174515000Y-47196000D01*
X173095000Y-54286000D02*
X185965000Y-54286000D01*
X185965000Y-54286000D02*
X185965000Y-53976000D01*
X174515000Y-47196000D02*
X184545000Y-47196000D01*
X184545000Y-47196000D02*
X184545000Y-46696000D01*
X173095000Y-52456000D02*
X173095000Y-46696000D01*
X185965000Y-46696000D02*
X185965000Y-52456000D01*
%TO.C,TP1*%
X148020000Y-48260000D02*
G75*
G03*
X148020000Y-48260000I-700000J0D01*
G01*
D13*
%TO.C,F1*%
X196215000Y-68145000D02*
X196215000Y-71525000D01*
X161650000Y-71525000D02*
X163395000Y-71525000D01*
X163395000Y-74905000D02*
X163395000Y-71525000D01*
X163395000Y-71525000D02*
X163395000Y-68145000D01*
X197960000Y-71525000D02*
X196215000Y-71525000D01*
X196215000Y-71525000D02*
X196215000Y-74905000D01*
X163395000Y-68145000D02*
X196215000Y-68145000D01*
X196215000Y-74905000D02*
X163395000Y-74905000D01*
D10*
%TO.C,U1*%
X121388876Y-104338731D02*
X130106501Y-107958231D01*
X163895321Y-58883676D02*
X164403321Y-56597676D01*
X174360288Y-65675025D02*
X165165321Y-61709426D01*
X131884501Y-115691497D02*
X135440501Y-117498165D01*
X136711729Y-52255929D02*
X139262913Y-46413929D01*
X131896913Y-54033929D02*
X135452913Y-52227261D01*
X158572505Y-52279676D02*
X156021321Y-46437676D01*
X163882909Y-110841750D02*
X164390909Y-113127750D01*
X152719321Y-44151676D02*
X142559321Y-44151676D01*
X131388913Y-58941445D02*
X130880913Y-56655445D01*
X118848876Y-69369398D02*
X118848876Y-100397728D01*
X152706909Y-125573750D02*
X142546909Y-125573750D01*
X163387321Y-54057676D02*
X159831321Y-52251008D01*
X131376501Y-110783981D02*
X130868501Y-113069981D01*
X158560093Y-117445750D02*
X156008909Y-123287750D01*
X176887876Y-69625398D02*
X176887876Y-100109398D01*
X121401288Y-65386695D02*
X130118913Y-61767195D01*
X136699317Y-117469497D02*
X139250501Y-123311497D01*
X174347876Y-104050401D02*
X165152909Y-108016000D01*
X163374909Y-115667750D02*
X159818909Y-117474418D01*
X131049947Y-113069989D02*
G75*
G03*
X132065930Y-115835313I1839566J-893440D01*
G01*
X152706908Y-125573769D02*
G75*
G03*
X156008909Y-123287750I103105J3378840D01*
G01*
X130118913Y-61767196D02*
G75*
G03*
X131388913Y-58941445I-892000J2099167D01*
G01*
X159831321Y-52251008D02*
G75*
G03*
X158572505Y-52279676I-586538J-1896781D01*
G01*
X163374915Y-115893090D02*
G75*
G03*
X164390909Y-113127750I-1661802J2179861D01*
G01*
X164403323Y-56597676D02*
G75*
G03*
X163387321Y-54057676I-2822080J344367D01*
G01*
X176900288Y-69616028D02*
G75*
G03*
X174360288Y-65706775I-4876775J-388841D01*
G01*
X121401290Y-65418449D02*
G75*
G03*
X118861288Y-69327698I2336703J-4298050D01*
G01*
X163895323Y-58883677D02*
G75*
G03*
X165165321Y-61709426I2161980J-726592D01*
G01*
X139250500Y-123311497D02*
G75*
G03*
X142552501Y-125597497I3198853J1092788D01*
G01*
X158560097Y-117445738D02*
G75*
G03*
X159818909Y-117474418I672316J1869009D01*
G01*
X136711729Y-52255928D02*
G75*
G03*
X135452913Y-52227261I-672276J-1868081D01*
G01*
X165152911Y-108016006D02*
G75*
G03*
X163882909Y-110841750I891902J-2099123D01*
G01*
X156021321Y-46437676D02*
G75*
G03*
X152719321Y-44151676I-3198853J-1092788D01*
G01*
X132078343Y-53890114D02*
G75*
G03*
X131062342Y-56655445I1661830J-2179875D01*
G01*
X135440510Y-117498135D02*
G75*
G03*
X136699317Y-117469497I586603J1895606D01*
G01*
X174347887Y-104018672D02*
G75*
G03*
X176887876Y-100109398I-2336874J4298143D01*
G01*
X142564913Y-44127931D02*
G75*
G03*
X139262913Y-46413929I-103140J-3378798D01*
G01*
X118848890Y-100397727D02*
G75*
G03*
X121388876Y-104306981I4876723J388798D01*
G01*
X131376479Y-110783973D02*
G75*
G03*
X130106501Y-107958231I-2161866J726644D01*
G01*
%TD*%
M02*
