%TF.GenerationSoftware,KiCad,Pcbnew,(6.0.7)*%
%TF.CreationDate,2023-01-09T20:26:50-06:00*%
%TF.ProjectId,Contactor PCB,436f6e74-6163-4746-9f72-205043422e6b,rev?*%
%TF.SameCoordinates,Original*%
%TF.FileFunction,Copper,L1,Top*%
%TF.FilePolarity,Positive*%
%FSLAX46Y46*%
G04 Gerber Fmt 4.6, Leading zero omitted, Abs format (unit mm)*
G04 Created by KiCad (PCBNEW (6.0.7)) date 2023-01-09 20:26:50*
%MOMM*%
%LPD*%
G01*
G04 APERTURE LIST*
G04 Aperture macros list*
%AMRoundRect*
0 Rectangle with rounded corners*
0 $1 Rounding radius*
0 $2 $3 $4 $5 $6 $7 $8 $9 X,Y pos of 4 corners*
0 Add a 4 corners polygon primitive as box body*
4,1,4,$2,$3,$4,$5,$6,$7,$8,$9,$2,$3,0*
0 Add four circle primitives for the rounded corners*
1,1,$1+$1,$2,$3*
1,1,$1+$1,$4,$5*
1,1,$1+$1,$6,$7*
1,1,$1+$1,$8,$9*
0 Add four rect primitives between the rounded corners*
20,1,$1+$1,$2,$3,$4,$5,0*
20,1,$1+$1,$4,$5,$6,$7,0*
20,1,$1+$1,$6,$7,$8,$9,0*
20,1,$1+$1,$8,$9,$2,$3,0*%
G04 Aperture macros list end*
%TA.AperFunction,ComponentPad*%
%ADD10C,1.000000*%
%TD*%
%TA.AperFunction,ComponentPad*%
%ADD11C,15.000000*%
%TD*%
%TA.AperFunction,ComponentPad*%
%ADD12C,1.518000*%
%TD*%
%TA.AperFunction,ComponentPad*%
%ADD13RoundRect,0.250001X0.499999X0.499999X-0.499999X0.499999X-0.499999X-0.499999X0.499999X-0.499999X0*%
%TD*%
%TA.AperFunction,ComponentPad*%
%ADD14C,1.500000*%
%TD*%
%TA.AperFunction,ComponentPad*%
%ADD15RoundRect,0.250001X-0.499999X-0.499999X0.499999X-0.499999X0.499999X0.499999X-0.499999X0.499999X0*%
%TD*%
%TA.AperFunction,Conductor*%
%ADD16C,1.000000*%
%TD*%
G04 APERTURE END LIST*
D10*
%TO.P,TP4,1,1*%
%TO.N,Net-(TP4-Pad1)*%
X147320000Y-120650000D03*
%TD*%
D11*
%TO.P,U2,1,A1*%
%TO.N,Net-(F4-Pad1)*%
X212138388Y-98190071D03*
%TO.P,U2,2,A2*%
%TO.N,Net-(F3-Pad1)*%
X212138388Y-71390071D03*
%TD*%
D10*
%TO.P,TP8,1,1*%
%TO.N,Net-(F4-Pad1)*%
X212090000Y-120015000D03*
%TD*%
D12*
%TO.P,F4,1*%
%TO.N,Net-(F4-Pad1)*%
X198940000Y-107327500D03*
%TO.P,F4,2*%
%TO.N,/HV(-)*%
X160470000Y-107327500D03*
%TD*%
D13*
%TO.P,J1,1,Pin_1*%
%TO.N,/HV(+)*%
X186467000Y-120787000D03*
D14*
%TO.P,J1,2,Pin_2*%
X183467000Y-120787000D03*
%TO.P,J1,3,Pin_3*%
X180467000Y-120787000D03*
%TO.P,J1,4,Pin_4*%
X177467000Y-120787000D03*
%TO.P,J1,5,Pin_5*%
X174467000Y-120787000D03*
%TO.P,J1,6,Pin_6*%
%TO.N,/HV(-)*%
X186467000Y-117787000D03*
%TO.P,J1,7,Pin_7*%
X183467000Y-117787000D03*
%TO.P,J1,8,Pin_8*%
X180467000Y-117787000D03*
%TO.P,J1,9,Pin_9*%
X177467000Y-117787000D03*
%TO.P,J1,10,Pin_10*%
X174467000Y-117787000D03*
%TD*%
D10*
%TO.P,TP5,1,1*%
%TO.N,Net-(F3-Pad1)*%
X212090000Y-49400000D03*
%TD*%
D12*
%TO.P,F2,1*%
%TO.N,Net-(TP4-Pad1)*%
X160470000Y-99047500D03*
%TO.P,F2,2*%
%TO.N,/HV(+)*%
X198940000Y-99047500D03*
%TD*%
%TO.P,F3,1*%
%TO.N,Net-(F3-Pad1)*%
X198940000Y-63295000D03*
%TO.P,F3,2*%
%TO.N,/Batt(-)*%
X160470000Y-63295000D03*
%TD*%
D15*
%TO.P,J2,1,Pin_1*%
%TO.N,/Batt(+)*%
X176530000Y-49276000D03*
D14*
%TO.P,J2,2,Pin_2*%
X179530000Y-49276000D03*
%TO.P,J2,3,Pin_3*%
X182530000Y-49276000D03*
%TO.P,J2,4,Pin_4*%
%TO.N,/Batt(-)*%
X176530000Y-52276000D03*
%TO.P,J2,5,Pin_5*%
X179530000Y-52276000D03*
%TO.P,J2,6,Pin_6*%
X182530000Y-52276000D03*
%TD*%
D10*
%TO.P,TP1,1,1*%
%TO.N,Net-(U1-Pad1)*%
X147320000Y-48260000D03*
%TD*%
D12*
%TO.P,F1,1*%
%TO.N,Net-(U1-Pad1)*%
X160570000Y-71525000D03*
%TO.P,F1,2*%
%TO.N,/Batt(+)*%
X199040000Y-71525000D03*
%TD*%
D11*
%TO.P,U1,1,A1*%
%TO.N,Net-(U1-Pad1)*%
X147525613Y-71608929D03*
%TO.P,U1,2,A2*%
%TO.N,Net-(TP4-Pad1)*%
X147525613Y-98408929D03*
%TD*%
D16*
%TO.N,/Batt(+)*%
X182530000Y-49276000D02*
X176530000Y-49276000D01*
X186436000Y-49276000D02*
X182530000Y-49276000D01*
X190500000Y-62985000D02*
X190500000Y-53340000D01*
X190500000Y-53340000D02*
X186436000Y-49276000D01*
X199040000Y-71525000D02*
X190500000Y-62985000D01*
%TO.N,/HV(+)*%
X193040000Y-104947500D02*
X193040000Y-118110000D01*
X186467000Y-120787000D02*
X174467000Y-120787000D01*
X193040000Y-118110000D02*
X190363000Y-120787000D01*
X190363000Y-120787000D02*
X186467000Y-120787000D01*
X198940000Y-99047500D02*
X193040000Y-104947500D01*
%TO.N,Net-(F3-Pad1)*%
X212138388Y-70990071D02*
X212138388Y-49448388D01*
X212138388Y-70990071D02*
X204443317Y-63295000D01*
X212138388Y-49448388D02*
X212090000Y-49400000D01*
X204443317Y-63295000D02*
X198940000Y-63295000D01*
%TO.N,/Batt(-)*%
X165511000Y-63295000D02*
X176530000Y-52276000D01*
X160470000Y-63295000D02*
X165511000Y-63295000D01*
X176530000Y-52276000D02*
X182530000Y-52276000D01*
%TO.N,Net-(F4-Pad1)*%
X212146088Y-98590071D02*
X212146088Y-119958912D01*
X203408659Y-107327500D02*
X198940000Y-107327500D01*
X212146088Y-98590071D02*
X203408659Y-107327500D01*
X212146088Y-119958912D02*
X212090000Y-120015000D01*
%TO.N,/HV(-)*%
X160470000Y-107327500D02*
X164007500Y-107327500D01*
X164007500Y-107327500D02*
X174467000Y-117787000D01*
X174467000Y-117787000D02*
X186467000Y-117787000D01*
%TO.N,Net-(U1-Pad1)*%
X147517913Y-48457913D02*
X147320000Y-48260000D01*
X160253929Y-71208929D02*
X160570000Y-71525000D01*
X147517913Y-71208929D02*
X160253929Y-71208929D01*
X147517913Y-71208929D02*
X147517913Y-48457913D01*
%TO.N,Net-(TP4-Pad1)*%
X147525613Y-98808929D02*
X147525613Y-120444387D01*
X160231429Y-98808929D02*
X160470000Y-99047500D01*
X147525613Y-98808929D02*
X160231429Y-98808929D01*
X147525613Y-120444387D02*
X147320000Y-120650000D01*
%TD*%
M02*
